<?xml version="1.0" standalone="no"?><!DOCTYPE svg PUBLIC "-//W3C//DTD SVG 1.1//EN" "http://www.w3.org/Graphics/SVG/1.1/DTD/svg11.dtd"><svg t="1740037148319" class="icon" viewBox="0 0 1024 1024" version="1.1" xmlns="http://www.w3.org/2000/svg" p-id="1091" xmlns:xlink="http://www.w3.org/1999/xlink" width="46" height="46"><path d="M585.142857 512a73.142857 73.142857 0 1 1-146.285714 0 73.142857 73.142857 0 0 1 146.285714 0z m106.057143 36.571429a182.857143 182.857143 0 0 1-358.4 0H182.857143a36.571429 36.571429 0 0 1 0-73.142858h149.942857a182.857143 182.857143 0 0 1 358.4 0H841.142857a36.571429 36.571429 0 0 1 0 73.142858H691.2z" fill="#038ed7" p-id="1092"></path><path d="M585.142857 512a73.142857 73.142857 0 1 1-146.285714 0 73.142857 73.142857 0 0 1 146.285714 0z" fill="#038ed7" p-id="1093"></path></svg>